<?xml version="1.0" encoding="utf-8"?>
<!-- Generator: Adobe Illustrator 28.2.0, SVG Export Plug-In . SVG Version: 6.00 Build 0)  -->
<svg version="1.1" id="Layer_1" xmlns="http://www.w3.org/2000/svg" xmlns:xlink="http://www.w3.org/1999/xlink" x="0px" y="0px"
	 viewBox="0 0 620 210" style="enable-background:new 0 0 620 210;" xml:space="preserve">
<style type="text/css">
	.st0{fill:url(#SVGID_1_);}
	.st1{fill:url(#SVGID_00000154390894244032283910000016014382011007717766_);}
	.st2{fill:url(#SVGID_00000092415536153029142140000008517001567419054524_);}
	.st3{fill:url(#SVGID_00000067943572213917794290000008365553706393041567_);}
	.st4{fill:url(#SVGID_00000060712064127004306100000004110707942827072953_);}
	.st5{fill:url(#SVGID_00000020370190608071883710000012063098096868545684_);}
</style>
<g>
	
		<linearGradient id="SVGID_1_" gradientUnits="userSpaceOnUse" x1="120.508" y1="49.2263" x2="146.0923" y2="49.2263" gradientTransform="matrix(0.8669 0.4985 -0.4985 0.8669 19.9178 -72.2653)">
		<stop  offset="2.237672e-07" style="stop-color:#ED1C24"/>
		<stop  offset="1" style="stop-color:#5C0B0E"/>
	</linearGradient>
	<path class="st0" d="M126.9,34.8l-9.8,17c-0.8,1.3-2.4,1.8-3.8,1L96,42.7c-1.3-0.8-1.8-2.4-1-3.8l9.8-17c0.8-1.3,2.4-1.8,3.8-1
		l17.4,10C127.2,31.7,127.7,33.4,126.9,34.8z"/>
	
		<linearGradient id="SVGID_00000064352457398029572400000003258288501026080161_" gradientUnits="userSpaceOnUse" x1="125.0637" y1="38.1725" x2="157.7399" y2="38.1725">
		<stop  offset="2.237672e-07" style="stop-color:#ED1C24"/>
		<stop  offset="1" style="stop-color:#5C0B0E"/>
	</linearGradient>
	<path style="fill:url(#SVGID_00000064352457398029572400000003258288501026080161_);" d="M157.4,36.1l-3.6,6.3
		c-2.3-2.3-5.3-3.9-8.6-5c-5.7-1.8-9.8-5.2-11.3-11.4c-0.4,1.5-0.9,3.1-0.7,4.5c1,6,6.1,8.7,11,12.1c-3.1-0.3-5.5-0.3-7.6,1.6
		c-0.5,0.4-1.9,0-2.8-0.3c-0.9-0.3-1.7-0.8-3-1.5c0.5,0.7,0.6,1.1,0.8,1.3c4.1,4.4,8.7,7.5,15.1,6.9c0.8-0.1,1.5-0.1,2.3,0l-1.4,2.5
		c-0.8,1.3-2.4,1.8-3.8,1l-17.4-10c-1.3-0.8-1.8-2.4-1-3.8l9.8-17c0.8-1.3,2.4-1.8,3.8-1l17.4,10C157.7,33.1,158.1,34.7,157.4,36.1z
		"/>
	
		<linearGradient id="SVGID_00000018228759018311270270000001487800887903279492_" gradientUnits="userSpaceOnUse" x1="296.4742" y1="63.7595" x2="322.0586" y2="63.7595" gradientTransform="matrix(0.8669 0.4985 -0.4985 0.8669 19.9178 -72.2653)">
		<stop  offset="2.237672e-07" style="stop-color:#ED1C24"/>
		<stop  offset="1" style="stop-color:#5C0B0E"/>
	</linearGradient>
	<path style="fill:url(#SVGID_00000018228759018311270270000001487800887903279492_);" d="M272.2,135.1l-9.8,17
		c-0.8,1.3-2.4,1.8-3.8,1l-17.4-10c-1.3-0.8-1.8-2.4-1-3.8l9.8-17c0.8-1.3,2.4-1.8,3.8-1l17.4,10C272.5,132.1,273,133.8,272.2,135.1
		z"/>
	<g>
		
			<linearGradient id="SVGID_00000059994850145195833830000009356616011445615276_" gradientUnits="userSpaceOnUse" x1="77.8292" y1="76.7524" x2="292.7493" y2="76.7524">
			<stop  offset="1.129491e-06" style="stop-color:#FCEE21"/>
			<stop  offset="1" style="stop-color:#F7931E"/>
		</linearGradient>
		<path style="fill:url(#SVGID_00000059994850145195833830000009356616011445615276_);" d="M288.7,52.1L266,65.7
			c-0.8,0.5-1.3,1.3-1.3,2.3v7.3c0,14.9-8.2,22.8-23.5,22.8h-28.9c-0.8,0-1.6,0-2.4-0.1c-9.8-0.7-20.4-5.8-20.4-25.1V29.6
			c0-2.4-2.2-4.1-4.5-3.6l-21.4,5c-1.7,0.4-2.8,1.8-2.9,3.5l-0.4,1.3l-0.2,0.7l-4.5,7.9c0.1,0.2,0.3,0.4,0.4,0.6
			c1.2,1.9,1.9,4.1,3,6.4c5.9,1.4,11.5,4.1,15.7,9.4c4.5,5.8,4.5,12.8-0.2,17.9c-1-1.9-1.8-3.8-3-5.5c-2.1-3.2-4.5-3.8-7.1-2.2
			c-2.9,1.8-3.4,5.8-0.6,8.4c2,1.8,4.4,3.1,6.8,4.8c-1,2-2.5,3.5-4.8,3.6c-5.2,0.2-10.4,0.2-13.8-4.8c-0.2-0.3-0.8-0.6-1.3-0.6
			c-3.1,0-6.1,0.2-8.9,0.2c1.2,1,3,2.2,4.5,3.7c2.8,2.9,2.5,5.4-0.9,7.4c-5.2,3.1-10.6,4.3-16.5,2c-0.5-0.2-1.2-0.3-1.8-0.2
			c-3.8,0.8-7.9,0.2-11.3,2.6c-0.7,0.5-2,0.3-3.1,0.5c-0.3-2.3,1-3.1,2.5-3.8c0.9-0.5,1.7-1.1,2.6-1.5c0.9-0.4,1.9-0.6,2.8-0.7
			c1.4-0.2,2.7-0.2,4.3-0.3c-1.7-4.9-1.6-4.9,3.7-4.9c-2.1-0.9-4.1-1.8-6.2-2.5c-0.4-0.1-1.1,0.3-1.7,0.6c-3,1.1-5.9,2.5-8.9,3.3
			c-2.9,0.8-5.9,0.8-8.1-2c-0.2-0.3-0.8-0.4-1.2-0.4c-4.7,0.2-9.6-0.9-13.8,2.2c-0.7,0.5-1.7,0.5-3.3,0.9c0.7-1.7,0.8-3,1.6-3.7
			c2.4-1.9,4.6-4,8.3-2.8c1.8,0.6,4-0.1,5.9-0.2c0.4-4.4,0.6-4.5,4.2-5.1c8.9-1.6,17.5-3.3,25.7-7.4c0.3-0.2,0.6-0.4,1-0.8
			c-4.9-3.3-9.8-6-15.4-7.4c-0.3-0.1-0.8-0.2-0.9-0.1c-1.1,2.1-3.3,1.1-4.9,1.7c-1.7,0.7-3,0-3.8-2.1c-0.7-1.7,0.5-2.7,1.7-2.8
			c2.8-0.3,5.6-0.4,8.3-0.1c7.3,0.8,14.3,2.5,21,5.4c0.9,0.4,1.5,0.9,3,1.4c0.9,0.3,0.7,0.3,1,0.5l0.4,0.2c0.4,0.3,0.3,0,0.7,0.2
			c0.4,0.3,2.2,1.2,3.3,1.8h0c1.5-5.6,3-10.8,7.5-14.7c-0.7-0.8-1.5-1.4-2.3-1.8l-2.7,4.7c-0.9,1.5-2.9,2.1-4.4,1.2L124,45.5
			c-0.2-0.1-0.3-0.2-0.4-0.3l-5.5,9.7c-0.9,1.5-2.9,2.1-4.4,1.2L94.3,44.9c-9.8,6.8-16.2,18-16.3,34.3l-0.1,11.9
			c-0.2,31.4,14.3,29.5,46.6,29.5h17.7c13,0,20.2-2.4,28.5-7.2c7.7,9.4,17,14.2,35.3,14.2h34.5c1.5,0,2.9,0,4.3-0.1l4.2-7.3
			c0.9-1.6,2.9-2.1,4.4-1.2l9.4,5.4c20.2-6.7,30-24,30-52.2V54.4C292.7,52.3,290.5,51,288.7,52.1z M170.3,79.2
			c-0.6-0.2-1.3-0.6-1.4-1.1c-0.4-1.6-0.5-3.3-0.9-5.4c1.7,2.2,3.2,4.2,5,6.5C171.6,79.3,170.9,79.4,170.3,79.2z"/>
	</g>
	<g>
		
			<image style="overflow:visible;opacity:0.17;" width="485" height="188" xlink:href="58ED570.png"  transform="matrix(1 0 0 1 74.4101 20.4101)">
		</image>
		<g>
			<g>
				
					<linearGradient id="SVGID_00000177444835109828184700000013889070511911815076_" gradientUnits="userSpaceOnUse" x1="77.8258" y1="106.0467" x2="506.2293" y2="106.0467">
					<stop  offset="2.237672e-07" style="stop-color:#ED1C24"/>
					<stop  offset="1" style="stop-color:#8C0006"/>
				</linearGradient>
				<path style="fill:url(#SVGID_00000177444835109828184700000013889070511911815076_);" d="M502.1,23.1l-22.7,13.6
					c-0.8,0.5-1.3,1.3-1.3,2.3v92c-11.2,2.4,20.3,1,5,1H457c-1.5,0-2.7-1.2-2.7-2.7v-41c0-17-0.7-31.8-13.6-45.2
					c-0.1-0.1-0.2-0.2-0.3-0.2c-9.8-8.3-19.8-9.7-35.8-9.7c-23.5,0-38.4,3.3-39.1,3.6c-17.3,4.9-24.8,13.9-29.6,29.4
					c-0.3,0.8-0.9,1.5-1.7,1.8c-19,6.3-28.7,23.2-28.7,49.5v-4.4c0,7.3,0.7,10.3,1.9,15.8c0.4,1.7-0.9,3.2-2.6,3.2H275
					c0.5,0.9,0.5,2.1-0.1,3.1l-11.4,19.9c-0.9,1.5-2.9,2.1-4.4,1.2l-20.4-11.7c-1.5-0.9-2.1-2.9-1.2-4.4l4.6-8h-1.1
					c-1.5,0-2.7-1.2-2.7-2.7V54.2c0-2.1-2.3-3.3-4-2.3l-23.2,13.8c-0.8,0.5-1.3,1.3-1.3,2.3l-10.4,68c0,17.7-101-12.5-118.1-12.2
					c-1.2,0-2.3,0.9-2.5,2.1l-1,29.7c-0.3,1.7,0.9,3.2,2.6,3.2H88c16.4,0,116.1,30.5,131,30.5c11.7,0,17.5-9.5,19.1-25.5
					c0.1-1.4,1.3-2.4,2.7-2.4h233.4c35.3,0,31.9,3.6,31.9-33.6V25.4C506.1,23.3,503.9,22,502.1,23.1z M373.2,129.3
					c0,1.5-1.2,2.7-2.7,2.7h-23.5c-0.2,0-0.3,0-0.5,0c-2.3-0.4-4.8-0.5-7-0.4c-3.4,0.1-6.3-2.6-6.2-6l0-13c0-11.8,6.5-18,18.7-18
					c14.9,0,21.1,4.8,21.1,20.2V129.3z M425.7,129.3c0,1.5-1.2,2.7-2.7,2.7h-19.4c-1.5,0-2.7-1.2-2.7-2.7v-14.6
					c0-12-1.9-21.8-6-29.3c-4.3-8.3-9-12.1-16-15.4c-2.4-1.1-1.8-4.7,0.8-5c5.2-0.7,12-1.4,18.6-1.4c15.1,0,27.3,2.9,27.3,24.5
					V129.3z"/>
				
					<linearGradient id="SVGID_00000032606419877112319380000001159207621697136574_" gradientUnits="userSpaceOnUse" x1="513.632" y1="92.0736" x2="542.1742" y2="92.0736">
					<stop  offset="2.237672e-07" style="stop-color:#ED1C24"/>
					<stop  offset="1" style="stop-color:#8C0006"/>
				</linearGradient>
				<path style="fill:url(#SVGID_00000032606419877112319380000001159207621697136574_);" d="M538.1,23.1l-23.2,13.8
					c-0.8,0.5-1.3,1.3-1.3,2.3v119.6c0,1.5,1.2,2.7,2.7,2.7h23.2c1.5,0,2.7-1.2,2.7-2.7V25.4C542.2,23.3,539.9,22,538.1,23.1z"/>
			</g>
		</g>
	</g>
</g>
</svg>
